<svg data-v-7f60a732="" data-v-7334d1b4="" aria-hidden="true" xmlns="http://www.w3.org/2000/svg" viewBox="0 0 14 14">
    <g data-v-7f60a732="" transform="translate(-2.000000, -1.000000)">
        <g data-v-7f60a732="" transform="translate(2.616699, 1.948730)">
            <path data-v-7f60a732=""
                d="M0.0714366,6.0411005c0,0.3932204,0.2237288,0.6711864,0.6915254,0.7457628
        C1.60364,6.9156766,1.9358432,7.3427954,1.9358432,8.4343204v1.9050856c0,1.8440676,0.840678,2.7118635,2.6711862,2.7118635
        c0.1084747,0,0.2237291-0.0203381,0.3050852-0.0474567c0.2101693-0.0881357,0.3254237-0.2576275,0.3254237-0.4813566
        c0-0.2644062-0.1152544-0.3999996-0.3525424-0.4610167c-0.0677967-0.0135593-0.1355934-0.0271187-0.2169495-0.0338984
        c-1.1389828-0.081356-1.552542-0.5694914-1.552542-1.8237286V7.9529648c0-1.1457624-0.60339-1.7830505-1.6610171-1.8847456
        c-0.020339,0-0.020339-0.0271187,0-0.0271187c1.0576271-0.1016951,1.6610171-0.7389832,1.6610171-1.8847456V1.8987277
        c0-1.261017,0.4135592-1.7355932,1.552542-1.8169491c0.1084747-0.0067797,0.2033901-0.020339,0.2711868-0.0474576
        c0.19661-0.0677966,0.298305-0.2169491,0.298305-0.4542373s-0.1220341-0.4-0.3525424-0.4813559
        C4.7833009-0.9351707,4.6748261-0.94873,4.5392332-0.94873c-1.7694914,0-2.6033897,0.8813559-2.6033897,2.7118645v1.9118643
        c0,1.0779662-0.3322033,1.5118647-1.1728812,1.6406779C0.2951654,5.3902531,0.0714366,5.6546597,0.0714366,6.0411005z
        M12.6951647,6.0411005c0-0.3864408-0.2305079-0.6508474-0.6983051-0.7254238
        c-0.8338976-0.1288133-1.1728811-0.5627117-1.1728811-1.6406779V1.7631344c0-1.8305085-0.8338985-2.7118645-2.6033897-2.7118645
        c-0.1355934,0-0.2372875,0.0135593-0.3389826,0.0474576C7.6375384-0.8199164,7.522284-0.6572046,7.522284-0.4199165
        s0.1152544,0.379661,0.3050847,0.4542373c0.0677967,0.0271186,0.1559324,0.040678,0.2644062,0.0474576
        C9.223979,0.1360157,9.6510973,0.6377106,9.6510973,1.8987275v2.2576275c0,1.1525421,0.6033897,1.8847456,1.6542368,1.8847456
        c0.020339,0,0.020339,0.0271187,0,0.0271187c-1.0508471,0-1.6542368,0.7322035-1.6542368,1.8847456v2.2508478
        c0,1.2542372-0.4203396,1.7423725-1.5593224,1.8237286c-0.0813551,0.0067797-0.1423721,0.020339-0.2101688,0.0338984
        C7.6443181,12.1088972,7.522284,12.25805,7.522284,12.5224562c0,0.2372885,0.1288137,0.4135599,0.3322034,0.4813566
        c0.081356,0.0271187,0.1898308,0.0474567,0.2983046,0.0474567c1.8305082,0,2.6711864-0.8677959,2.6711864-2.7118635V8.4343204
        c0-1.0915251,0.3389835-1.5186439,1.1728811-1.6474571C12.4646568,6.7122869,12.6951647,6.4343209,12.6951647,6.0411005z"></path>
        </g>
    </g>
</svg>