<svg data-v-7f60a732="" data-v-2a33cdf4="" aria-hidden="true" xmlns="http://www.w3.org/2000/svg" height="21" width="21" viewBox="0 0 41 41" fill="currentColor">
    <path data-v-7f60a732=""
        d="M20.8.3a20,20,0,0,1,0,40,20.1,20.1,0,0,1-20-20A20.2,20.2,0,0,1,20.8.3Zm0,2.6a17.4,17.4,0,0,0,0,34.8A17.2,17.2,0,0,0,38.2,20.3,17.3,17.3,0,0,0,20.8,2.9Z">
    </path>
    <path data-v-7f60a732=""
        d="M31.9,16a1.1,1.1,0,0,0,1.2-1.1,1.1,1.1,0,0,0-1.2-1.1H9.8a1.1,1.1,0,0,0-1.2,1.1A1.1,1.1,0,0,0,9.8,16Z"></path>
    <path data-v-7f60a732=""
        d="M29,22.6a1,1,0,0,0,1.1-1.1A1.1,1.1,0,0,0,29,20.4H12.7a1.1,1.1,0,0,0-1.2,1.1,1.1,1.1,0,0,0,1.2,1.1Z"></path>
    <path data-v-7f60a732=""
        d="M25.9,29.2a1.1,1.1,0,0,0,1.2-1.1A1.1,1.1,0,0,0,25.9,27H15.8a1.1,1.1,0,0,0-1.2,1.1,1.1,1.1,0,0,0,1.2,1.1Z">
    </path>
</svg>