<svg data-v-7f60a732="" data-v-7334d1b4="" aria-hidden="true" xmlns="http://www.w3.org/2000/svg" viewBox="0 0 14 14">
    <g data-v-7f60a732="" transform="translate(3.174561, 1.483887)">
        <path data-v-7f60a732="" d="M-0.276123,2.9490175c0,1.2867641,0.7977941,2.1874995,2.3290441,2.6121321l3.2362134,0.9136028
      C6.3507152,6.777142,6.8975902,7.324017,6.8975902,8.096076v0.2251844H6.5372963
      c-0.3860297,0-0.7205882,0.0386028-0.9586401,0.2766542C5.3406048,8.8359661,5.3084359,9.1640911,5.3084359,9.5501204v1.737133
      c0,0.3924627,0.0321689,0.7270212,0.2702203,0.9586391c0.2380519,0.2380514,0.5726104,0.2702208,0.9586401,0.2702208h1.7371321
      c0.3924637,0,0.7270222-0.0321693,0.9650736-0.2702208c0.2316179-0.2316179,0.2637863-0.5661764,0.2637863-0.9586391v-1.737133
      c0-0.3860292-0.0321684-0.7141542-0.2637863-0.9522057C9.0014505,8.3598633,8.6668921,8.3212605,8.2744284,8.3212605H7.9334359
      V8.096076c0-1.2803311-0.7977943-2.181066-2.3290443-2.6056986L2.3681784,4.5767746
      C1.3130314,4.2808185,0.7597226,3.7210763,0.7597226,2.9490175V2.7173998h0.3538603
      c0.3924632,0,0.7270222-0.0386031,0.9650736-0.2766545C2.3102741,2.2091277,2.348877,1.8745689,2.348877,1.4821056v-1.7306985
      c0-0.3924632-0.0386028-0.7205882-0.2702205-0.9586396C1.8406049-1.445284,1.5060461-1.483887,1.1135828-1.483887h-1.7371323
      c-0.3860294,0-0.7205883,0.0386029-0.9586396,0.2766544s-0.2702206,0.5661764-0.2702206,0.9522059v1.7371323
      c0,0.3924633,0.0321692,0.7270221,0.2702206,0.9586397c0.2380514,0.2380514,0.5726104,0.2766545,0.9650735,0.2766545h0.3409927
      C-0.2761228,2.7173998-0.2761228,2.9490175-0.276123,2.9490175z"></path>
    </g>
</svg>